<svg xmlns="http://www.w3.org/2000/svg" viewBox="0 0 200 200" fill="none" stroke="#F4EEE4" stroke-width="4" stroke-linecap="round" stroke-linejoin="round">
  <circle cx="100" cy="22" r="11" />
  <line x1="100" y1="33" x2="100" y2="48" />
  <path d="M88 50 Q100 58 112 50" />
  <path d="M112 58 Q100 66 88 58" />
  <path d="M88 66 Q100 74 112 66" />
  <path d="M112 74 Q100 82 88 74" />
  <path d="M88 82 Q100 90 112 82" />
  <path d="M112 90 Q100 98 88 90" />
  <path d="M88 98 Q100 106 112 98" />
  <path d="M112 106 Q100 114 88 106" />
  <path d="M88 114 Q100 122 112 114" />
  <path d="M112 122 Q100 130 88 122" />
  <path d="M88 130 Q100 138 112 130" />
  <line x1="100" y1="138" x2="100" y2="148" />
  <ellipse cx="100" cy="166" rx="22" ry="14" />
  <ellipse cx="100" cy="162" rx="16" ry="9" stroke-opacity="0.45" />
</svg>
