<svg xmlns="http://www.w3.org/2000/svg" viewBox="0 0 200 200" fill="none" stroke="#F4EEE4" stroke-width="4" stroke-linecap="round" stroke-linejoin="round">
  <ellipse cx="100" cy="120" rx="62" ry="20" />
  <ellipse cx="100" cy="120" rx="48" ry="14" stroke-opacity="0.5" />
  <path d="M38 120 Q42 112 50 112 Q58 112 60 120 Q62 128 70 128 Q78 128 80 120 Q82 112 90 112 Q98 112 100 120 Q102 128 110 128 Q118 128 120 120 Q122 112 130 112 Q138 112 140 120 Q142 128 150 128 Q158 128 162 120" />
  <path d="M82 100 L82 60 L118 60 L118 100" />
  <line x1="82" y1="60" x2="118" y2="60" stroke-width="6" />
  <line x1="92" y1="60" x2="92" y2="40" />
  <line x1="108" y1="60" x2="108" y2="40" />
  <ellipse cx="100" cy="38" rx="12" ry="5" />
</svg>
